<svg xmlns="http://www.w3.org/2000/svg" viewBox="0 0 300 63"><title>eMedici</title><path fill="currentColor" d="M57.801 56.288c0 3.56 2.484 6.126 6.127 6.126 3.56 0 6.126-2.567 6.126-6.126V25.49L82.39 48.754c1.242 2.318 2.815 4.222 5.712 4.222 2.815 0 4.388-1.904 5.547-4.222l12.336-23.264v30.798c0 3.56 2.566 6.126 6.209 6.126 3.56 0 6.043-2.567 6.043-6.126V11.085c0-4.305-3.063-7.451-7.368-7.451-2.98 0-5.464 1.655-6.954 4.553l-15.564 29.39L73.283 8.932c-1.656-3.146-4.222-5.298-7.617-5.298-4.553 0-7.865 3.311-7.865 7.865zM124.758 40.806c0 12.501 9.687 22.022 22.933 22.022 8.362 0 13.246-3.312 15.564-5.381 1.49-1.242 2.65-2.898 2.65-4.72 0-2.897-2.07-4.801-4.885-4.801-1.242 0-2.318.414-3.312 1.076-2.235 1.739-4.719 3.394-9.19 3.394-6.208 0-10.762-3.808-11.507-9.438h26.99c3.145 0 5.05-2.07 5.05-5.132 0-9.935-9.356-19.456-21.277-19.456-13.081 0-23.016 9.935-23.016 22.436zm12.253-5.133c1.076-4.802 5.216-8.362 10.597-8.362 4.885 0 9.107 3.726 9.852 8.362zM211.336 3.634c-3.56 0-6.043 2.483-6.043 5.96v14.489c-2.98-3.56-7.451-5.713-12.75-5.713-11.425 0-21.028 9.935-21.028 22.436s9.355 22.022 20.614 22.022c5.795 0 10.68-2.567 14.157-7.037v1.076c0 3.229 2.235 5.547 5.547 5.547 3.229 0 5.547-2.318 5.547-5.547V9.594c0-3.477-2.484-5.96-6.044-5.96zm-16.723 48.183c-6.375 0-11.094-4.967-11.094-11.177 0-6.292 4.719-11.176 11.094-11.176s11.093 4.884 11.093 11.176c0 6.21-4.718 11.177-11.093 11.177zM230.855 14.396c4.222 0 7.202-2.897 7.202-6.954 0-3.974-2.98-6.954-7.202-6.954-4.305 0-7.286 2.98-7.286 6.954 0 4.057 2.98 6.954 7.286 6.954zm0 4.388c-3.643 0-6.127 2.567-6.127 6.126v31.378c0 3.56 2.484 6.126 6.127 6.126 3.56 0 6.043-2.567 6.043-6.126V24.91c0-3.56-2.483-6.126-6.043-6.126zM242.177 40.806c0 12.501 9.687 22.022 22.933 22.022 7.12 0 11.839-2.98 13.743-4.554 1.325-1.076 2.484-2.814 2.484-4.636 0-3.228-2.236-5.547-5.382-5.547-1.324 0-2.483.58-3.56 1.242-1.159.91-3.477 2.484-7.037 2.484-6.457 0-11.176-4.967-11.176-11.177 0-6.292 4.719-11.176 11.176-11.176 3.064 0 5.299 1.242 6.623 2.152.994.58 2.319 1.242 3.56 1.242 3.312 0 5.547-2.4 5.547-5.63 0-2.07-1.407-4.056-3.229-5.215-1.82-1.242-5.712-3.643-12.335-3.643-13.246 0-23.347 9.935-23.347 22.436zM291.914 14.396c4.222 0 7.203-2.897 7.203-6.954 0-3.974-2.98-6.954-7.203-6.954-4.305 0-7.285 2.98-7.285 6.954 0 4.057 2.98 6.954 7.285 6.954zm0 4.388c-3.643 0-6.126 2.567-6.126 6.126v31.378c0 3.56 2.483 6.126 6.126 6.126 3.56 0 6.044-2.567 6.044-6.126V24.91c0-3.56-2.484-6.126-6.044-6.126z"></path><path fill="#00D5FF" d="M33.616 15.32c10.09 0 16.14 5.604 18.553 12.546 2.58 7.421-3.89 13.673-11.842 14.284-5.301.408-9.83.612-13.588.612 0 4.306 3.036 8.688 7.534 8.688 4.525 0 4.525-3.231 8.351-3.666 5.058-.574 9.207 3.445 9.207 6.226s-3.442 4.344-7.417 5.515c-3.975 1.172-5.535 1.532-9.458 1.532-12.617 0-20.629-7.024-22.063-18.886C6.203 40.826-.042 31.475.92 28.817c1.4-3.866 4.247-1.56 7.555.57l.383.245c1.432.904 2.942 1.73 4.452 1.98 2.16-10.285 9.598-16.292 20.306-16.292zm.192 11.387c-4.402 0-7.312 2.656-7.312 6.866 4.874.328 8.792.304 11.754-.073.85-.108 2.688-.607 2.381-2.117-.676-2.947-3.217-4.676-6.823-4.676z"></path></svg>
